<?xml version="1.0" encoding="UTF-8"?>
<svg id="Layer_2" data-name="Layer 2" xmlns="http://www.w3.org/2000/svg" viewBox="0 0 971.29 126.49">
  <defs>
    <style>
      .cls-1 {
        fill: #1a1a1a;
      }

      .cls-2 {
        fill: #d11d29;
      }
    </style>
  </defs>
  <g id="Layer_1-2" data-name="Layer 1">
    <g>
      <path class="cls-2" d="M950.12,122.43c-5.89,0-10.89-2.07-15.01-6.19-4.12-4.12-6.16-9.09-6.16-14.98s2.05-10.89,6.16-15.01c4.12-4.12,9.12-6.16,15.01-6.16s10.86,2.05,14.98,6.16c4.12,4.12,6.19,9.12,6.19,15.01s-2.07,10.86-6.19,14.98c-4.12,4.12-9.09,6.19-14.98,6.19Z"/>
      <g>
        <path class="cls-1" d="M20.68,36.08c7.96-5.67,17.16-8.52,27.56-8.52,13.36,0,24.74,4.71,34.14,14.12,9.41,9.39,14.12,20.77,14.12,34.14s-4.71,24.73-14.12,34.14c-9.39,9.41-20.77,14.11-34.14,14.11s-24.73-4.7-34.14-14.11C4.7,100.55,0,89.17,0,75.82V0h20.68v36.08ZM67.73,95.31c5.39-5.39,8.09-11.88,8.09-19.49s-2.7-14.12-8.09-19.49c-5.37-5.39-11.88-8.09-19.49-8.09s-14.11,2.7-19.49,8.09c-5.39,5.37-8.07,11.88-8.07,19.49s2.69,14.11,8.07,19.49c5.39,5.39,11.88,8.07,19.49,8.07s14.12-2.69,19.49-8.07Z"/>
        <path class="cls-1" d="M110.28,75.82c0-13.36,4.7-24.74,14.11-34.14,9.41-9.41,20.79-14.12,34.14-14.12v20.68c-7.61,0-14.11,2.7-19.49,8.09-5.39,5.37-8.07,11.88-8.07,19.49v48.24h-20.68v-48.24Z"/>
        <path class="cls-1" d="M263.95,124.06h-20.68v-8.52c-7.98,5.67-17.17,8.52-27.58,8.52-13.35,0-24.73-4.71-34.14-14.12-9.41-9.39-14.11-20.77-14.11-34.14s4.7-24.73,14.11-34.14,20.79-14.11,34.14-14.11,24.74,4.7,34.14,14.11c9.41,9.41,14.12,20.79,14.12,34.14v48.26ZM215.69,48.24c-7.61,0-14.11,2.69-19.49,8.07-5.39,5.39-8.07,11.88-8.07,19.49s2.69,14.12,8.07,19.49c5.39,5.39,11.88,8.09,19.49,8.09s14.12-2.7,19.49-8.09c5.39-5.37,8.09-11.88,8.09-19.49s-2.7-14.11-8.09-19.49c-5.37-5.39-11.88-8.07-19.49-8.07Z"/>
        <path class="cls-1" d="M303.26,124.06h-20.68v-48.24c0-13.36,4.7-24.74,14.11-34.14,9.41-9.41,20.79-14.12,34.14-14.12s24.74,4.71,34.14,14.12c9.41,9.39,14.12,20.77,14.12,34.14v48.24h-20.68v-48.24c0-7.61-2.7-14.12-8.09-19.49-5.37-5.39-11.88-8.09-19.49-8.09s-14.11,2.7-19.49,8.09c-5.39,5.37-8.07,11.88-8.07,19.49v48.24Z"/>
        <path class="cls-1" d="M489.36,77.58c0,13.35-4.71,24.73-14.12,34.14-9.39,9.41-20.77,14.11-34.14,14.11s-24.73-4.7-34.14-14.11c-9.41-9.41-14.11-20.79-14.11-34.14s4.7-24.74,14.11-34.14c9.41-9.41,20.79-14.12,34.14-14.12,10.41,0,19.6,2.85,27.58,8.52V1.76h20.68v75.82ZM460.59,97.07c5.39-5.39,8.09-11.88,8.09-19.49s-2.7-14.12-8.09-19.49c-5.37-5.39-11.88-8.09-19.49-8.09s-14.11,2.7-19.49,8.09c-5.39,5.37-8.07,11.88-8.07,19.49s2.69,14.11,8.07,19.49c5.39,5.39,11.88,8.07,19.49,8.07s14.12-2.69,19.49-8.07Z"/>
        <path class="cls-1" d="M530.7,27.56h41.36v20.68h-38.23c-7.33.08-10.88,1.51-10.66,4.31,0,4.17,7.64,8.15,22.93,11.96,11.2,2.79,19.02,6.28,23.43,10.45,4.41,4.16,6.61,10.16,6.61,17.98,0,10.27-2.97,18.02-8.94,23.27-5.95,5.24-14.69,7.86-26.17,7.86h-37.9l-.11-20.68h37.48c9.04-.35,13.74-2.73,14.11-7.1,0-3.74-2.94-6.36-8.84-7.87-19.88-4.95-31.96-9.89-36.23-14.81-4.28-4.91-6.41-10.85-6.41-17.82,0-18.96,9.19-28.36,27.56-28.22Z"/>
        <path class="cls-1" d="M606.52,27.56v96.5h-20.68V27.56h20.68Z"/>
        <path class="cls-1" d="M716.8,78.24c0,13.35-4.71,24.73-14.12,34.14-9.39,9.41-20.77,14.11-34.14,14.11s-24.73-4.7-34.14-14.11c-9.41-9.41-14.11-20.79-14.11-34.14s4.7-24.74,14.11-34.14c9.41-9.41,20.79-14.12,34.14-14.12,10.41,0,19.6,2.85,27.58,8.52V2.43h20.68v75.82ZM688.03,97.74c5.39-5.39,8.09-11.88,8.09-19.49s-2.7-14.12-8.09-19.49c-5.37-5.39-11.88-8.09-19.49-8.09s-14.11,2.7-19.49,8.09c-5.39,5.37-8.07,11.88-8.07,19.49s2.69,14.11,8.07,19.49,11.88,8.07,19.49,8.07,14.12-2.69,19.49-8.07Z"/>
        <path class="cls-1" d="M759.33,95.31c5.39,5.39,11.88,8.07,19.49,8.07s14.12-2.69,19.49-8.07l.11-.11,14.65,14.65-.11.11c-9.39,9.41-20.77,14.11-34.14,14.11s-24.73-4.7-34.14-14.11c-9.41-9.41-14.11-20.79-14.11-34.14s4.7-24.74,14.11-34.14c9.41-9.41,20.79-14.12,34.14-14.12s24.74,4.71,34.14,14.12c9.41,9.39,14.12,20.77,14.12,34.14,0,2.29-.22,4.59-.65,6.88h-74.31c1.15,4.74,3.55,8.94,7.21,12.61ZM798.31,56.33c-5.37-5.39-11.88-8.09-19.49-8.09s-14.11,2.7-19.49,8.09c-1.8,1.8-3.27,3.7-4.41,5.7h47.82c-1.16-2-2.63-3.9-4.43-5.7Z"/>
        <path class="cls-1" d="M868.42,27.56h41.36v20.68h-38.23c-7.33.08-10.88,1.51-10.66,4.31,0,4.17,7.64,8.15,22.93,11.96,11.2,2.79,19.02,6.28,23.43,10.45,4.41,4.16,6.61,10.16,6.61,17.98,0,10.27-2.97,18.02-8.94,23.27-5.95,5.24-14.69,7.86-26.17,7.86h-37.9l-.11-20.68h37.48c9.04-.35,13.74-2.73,14.11-7.1,0-3.74-2.94-6.36-8.84-7.87-19.88-4.95-31.96-9.89-36.23-14.81-4.28-4.91-6.41-10.85-6.41-17.82,0-18.96,9.19-28.36,27.56-28.22Z"/>
      </g>
    </g>
  </g>
</svg>